# xmcd
#
# Track frame offsets: 
#        150
#        12841
#        24419
#        35432
#        50141
#        62979
#        75869
#        86993
#        98359
#        108682
#        122287
#        134876
#        145222
#        160381
#        171978
#        185851
#        198742
#        212055
#        223475
#        237357
#        249782
#        262868
#
# Disc length: 3666 seconds
#
# Revision: 2
# Processed by: cddbd v1.5.2PL0 Copyright (c) Steve Scherf et al.
# Submitted via: ExactAudioCopy v1.0b2
#
DISCID=450e5016
DTITLE=B. B. King - Purely ...
DYEAR=2009
DGENRE=Blues
TTITLE0=Got The Blues
TTITLE1=Take A Swing With Me (Love You Baby)
TTITLE2=When Your Baby Packs Up And Goes
TTITLE3=B. B.'s Boogie
TTITLE4=Mistreated Woman
TTITLE5=Walkin' And Cryin'
TTITLE6=B. B. Blues
TTITLE7=She's Dynamite
TTITLE8=That Ain't The Way To Do It
TTITLE9=Three O'Clock Blues
TTITLE10=Boogie Woogie Woman
TTITLE11=Fine Looking Woman
TTITLE12=My Own Fault Darlin'
TTITLE13=Shake It Up And Go (featuring Ike Turner on piano)
TTITLE14=She Don't Move Me No More
TTITLE15=Someday, Somewhere
TTITLE16=Story From My Heart And Soul  (featuring Ike Turner on piano)
TTITLE17=You Didn't Want Me
TTITLE18=You Know I Love You
TTITLE19=Highway Bound
TTITLE20=Neighbourhood Affair
TTITLE21=Please Hurry Home
EXTD=
EXTT0=
EXTT1=
EXTT2=
EXTT3=
EXTT4=
EXTT5=
EXTT6=
EXTT7=
EXTT8=
EXTT9=
EXTT10=
EXTT11=
EXTT12=
EXTT13=
EXTT14=
EXTT15=
EXTT16=
EXTT17=
EXTT18=
EXTT19=
EXTT20=
EXTT21=
PLAYORDER=
